<svg width="132" height="43" viewBox="0 0 132 43" fill="none" xmlns="http://www.w3.org/2000/svg">
<path d="M0.670455 25.1705V21.3523L23.3068 10.375V15.5739L6.60227 23.1932L6.75568 22.8864V23.6193L6.60227 23.3295L23.3068 30.9318V36.1477L0.670455 25.1705ZM40.5933 37.5284C38.9342 37.5284 37.4399 37.233 36.1103 36.642C34.7922 36.0398 33.7467 35.1534 32.974 33.983C32.2126 32.8125 31.8319 31.3693 31.8319 29.6534C31.8319 28.1761 32.1047 26.9545 32.6501 25.9886C33.1956 25.0227 33.9399 24.25 34.8831 23.6705C35.8262 23.0909 36.8887 22.6534 38.0706 22.358C39.2637 22.0511 40.4967 21.8295 41.7694 21.6932C43.3035 21.5341 44.5478 21.392 45.5024 21.267C46.4569 21.1307 47.1501 20.9261 47.5819 20.6534C48.0251 20.3693 48.2467 19.9318 48.2467 19.3409V19.2386C48.2467 17.9545 47.866 16.9602 47.1047 16.2557C46.3433 15.5511 45.2467 15.1989 43.8149 15.1989C42.3035 15.1989 41.1047 15.5284 40.2183 16.1875C39.3433 16.8466 38.7524 17.625 38.4456 18.5227L32.6842 17.7045C33.1387 16.1136 33.8887 14.7841 34.9342 13.7159C35.9797 12.6364 37.2581 11.8295 38.7694 11.2955C40.2808 10.75 41.9512 10.4773 43.7808 10.4773C45.0422 10.4773 46.2978 10.625 47.5478 10.9205C48.7978 11.2159 49.9399 11.7045 50.974 12.3864C52.0081 13.0568 52.8376 13.9716 53.4626 15.1307C54.099 16.2898 54.4172 17.7386 54.4172 19.4773V37H48.4853V33.4034H48.2808C47.9058 34.1307 47.3774 34.8125 46.6956 35.4489C46.0251 36.0739 45.1785 36.5795 44.1558 36.9659C43.1444 37.3409 41.9569 37.5284 40.5933 37.5284ZM42.1956 32.9943C43.4342 32.9943 44.5081 32.75 45.4172 32.2614C46.3262 31.7614 47.0251 31.1023 47.5137 30.2841C48.0137 29.4659 48.2637 28.5739 48.2637 27.608V24.5227C48.0706 24.6818 47.741 24.8295 47.2751 24.9659C46.8206 25.1023 46.3092 25.2216 45.741 25.3239C45.1728 25.4261 44.6103 25.517 44.0535 25.5966C43.4967 25.6761 43.0137 25.7443 42.6047 25.8011C41.6842 25.9261 40.8603 26.1307 40.1331 26.4148C39.4058 26.6989 38.8319 27.0966 38.4115 27.608C37.991 28.108 37.7808 28.7557 37.7808 29.5511C37.7808 30.6875 38.1956 31.5455 39.0251 32.125C39.8547 32.7045 40.9115 32.9943 42.1956 32.9943ZM74.6672 2.09091H80.9399V26.6364C80.9285 28.8864 80.4512 30.8239 79.5081 32.4489C78.5649 34.0625 77.2467 35.3068 75.5535 36.1818C73.8717 37.0455 71.9115 37.4773 69.6728 37.4773C67.6274 37.4773 65.7865 37.1136 64.1501 36.3864C62.5251 35.6477 61.2353 34.5568 60.2808 33.1136C59.3262 31.6705 58.849 29.875 58.849 27.7273H65.1387C65.1501 28.6705 65.3547 29.483 65.7524 30.1648C66.1615 30.8466 66.724 31.3693 67.4399 31.733C68.1558 32.0966 68.9797 32.2784 69.9115 32.2784C70.9228 32.2784 71.7808 32.0682 72.4853 31.6477C73.1899 31.2159 73.724 30.5795 74.0876 29.7386C74.4626 28.8977 74.6558 27.8636 74.6672 26.6364V2.09091ZM101.079 0.454543L89.8291 42.25H85.278L96.528 0.454543H101.079ZM131.209 25.1705L108.573 36.1477V30.9318L125.277 23.3295L125.107 23.6193V22.8864L125.277 23.1932L108.573 15.5739V10.375L131.209 21.3523V25.1705Z" fill="#F5F5F5"/>
</svg>
